HIERARCHY
ROOT root
{
	OFFSET 0.000000 0.000000 0.000000
	CHANNELS 6 Xposition Yposition Zposition Xrotation Yrotation Zrotation
	JOINT lhip
	{
		OFFSET 0.074893 -0.091585 -0.006512
		CHANNELS 3 Xrotation Yrotation Zrotation
		JOINT lknee
		{
			OFFSET 0.029030 -0.363108 -0.009310
			CHANNELS 3 Xrotation Yrotation Zrotation
			JOINT lankle
			{
				OFFSET -0.011519 -0.383706 -0.045428
				CHANNELS 3 Xrotation Yrotation Zrotation
				JOINT ltoe
				{
					OFFSET 0.024733 -0.055269 0.115241
					CHANNELS 3 Xrotation Yrotation Zrotation
					End Site
					{
						OFFSET 0.000000 0.000000 0.000000
					}
				}
			}
		}
	}
	JOINT rhip
	{
		OFFSET -0.072341 -0.091195 -0.003299
		CHANNELS 3 Xrotation Yrotation Zrotation
		JOINT rknee
		{
			OFFSET -0.035203 -0.369214 -0.011738
			CHANNELS 3 Xrotation Yrotation Zrotation
			JOINT rankle
			{
				OFFSET 0.013796 -0.384196 -0.043931
				CHANNELS 3 Xrotation Yrotation Zrotation
				JOINT rtoe
				{
					OFFSET -0.023894 -0.047104 0.119201
					CHANNELS 3 Xrotation Yrotation Zrotation
					End Site
					{
						OFFSET 0.000000 0.000000 0.000000
					}
				}
			}
		}
	}
	JOINT lowerback
	{
		OFFSET -0.002628 0.105956 -0.025260
		CHANNELS 3 Xrotation Yrotation Zrotation
		JOINT upperback
		{
			OFFSET 0.003780 0.128981 -0.002790
			CHANNELS 3 Xrotation Yrotation Zrotation
			JOINT chest
			{
				OFFSET 0.001847 0.050565 0.030442
				CHANNELS 3 Xrotation Yrotation Zrotation
				JOINT lowerneck
				{
					OFFSET -0.001776 0.215480 -0.052424
					CHANNELS 3 Xrotation Yrotation Zrotation
					JOINT upperneck
					{
						OFFSET 0.002694 0.063769 0.051568
						CHANNELS 3 Xrotation Yrotation Zrotation
						End Site
						{
							OFFSET 0.000000 0.000000 0.000000
						}
					}
				}
				JOINT lclavicle
				{
					OFFSET 0.078886 0.121714 -0.038496
					CHANNELS 3 Xrotation Yrotation Zrotation
					JOINT lshoulder
					{
						OFFSET 0.088955 0.032195 -0.008943
						CHANNELS 3 Xrotation Yrotation Zrotation
						JOINT lelbow
						{
							OFFSET 0.253734 -0.011714 -0.028972
							CHANNELS 3 Xrotation Yrotation Zrotation
							JOINT lwrist
							{
								OFFSET 0.239548 0.009053 0.000899
								CHANNELS 3 Xrotation Yrotation Zrotation
								End Site
								{
									OFFSET 0.000000 0.000000 0.000000
								}
							}
						}
					}
				}
				JOINT rclavicle
				{
					OFFSET -0.080404 0.119425 -0.043704
					CHANNELS 3 Xrotation Yrotation Zrotation
					JOINT rshoulder
					{
						OFFSET -0.092472 0.033297 -0.010896
						CHANNELS 3 Xrotation Yrotation Zrotation
						JOINT relbow
						{
							OFFSET -0.248476 -0.013375 -0.021842
							CHANNELS 3 Xrotation Yrotation Zrotation
							JOINT rwrist
							{
								OFFSET -0.246055 0.009361 -0.002166
								CHANNELS 3 Xrotation Yrotation Zrotation
								End Site
								{
									OFFSET 0.000000 0.000000 0.000000
								}
							}
						}
					}
				}
			}
		}
	}
}
MOTION
Frames: 5
Frame Time: 0.033333
0.000000 0.000000 0.000000 -88.291057 -2.660462 174.340869 -17.617785 -2.948706 -0.546132 28.863978 0.141508 -6.564212 -24.326637 12.324538 18.266954 0.062958 0.227493 -0.501121 -9.529368 -1.250289 -7.281498 60.300564 1.091923 4.544260 7.229547 -1.947920 6.959763 -0.129122 0.284292 0.098922 7.180021 3.545907 -1.394582 11.410410 -0.909945 4.133838 -3.606230 1.784428 -1.828896 14.551639 2.762581 -2.404091 -4.227646 6.378431 -3.535995 8.719338 6.489280 -25.202001 17.369666 -4.699990 -53.369557 78.918278 -76.116375 77.812658 -18.293140 -17.344355 -7.013908 4.108822 -0.172180 22.992604 10.816690 6.293000 49.113573 128.314497 79.216567 -125.974168 -22.210582 15.791060 12.409034 
0.000000 0.000000 0.000000 -86.951941 -5.243385 174.437355 -16.327133 -3.221230 -1.152997 32.883626 -3.028628 -6.390832 -25.362601 11.045772 18.370624 -0.242871 0.466308 -0.977174 -12.729920 -0.256866 -8.364583 68.561373 1.594366 4.373669 4.821925 -2.773012 5.608874 -0.247606 0.462675 0.355884 9.704340 2.544810 -1.315393 11.371604 -1.175185 4.165251 -3.497612 1.555021 -1.845610 13.213107 2.716886 -2.466970 -4.222077 5.964616 -3.787564 8.286813 4.840803 -26.094208 15.523843 -6.150662 -52.111422 71.355036 -75.482234 71.253176 -17.686994 -16.927623 -6.090598 3.766710 0.665471 24.329716 11.016101 5.840739 48.445868 104.173195 81.561981 -103.285671 -19.748175 15.067244 11.370700 
0.000000 0.000000 0.000000 -86.785006 -8.347988 174.804672 -14.276747 -4.424801 -2.243155 33.490229 -5.729818 -4.897261 -25.848698 10.838783 18.953557 -0.080384 0.450534 -1.464733 -16.428504 0.878412 -8.534665 73.710514 1.810697 4.396336 1.785208 -4.056093 4.421653 -0.483472 0.650786 0.430540 10.621706 1.354335 -1.155900 11.267676 -0.876470 3.926832 -3.485916 1.305043 -1.733474 12.800039 2.826964 -3.168028 -4.217945 6.279879 -3.707801 7.191803 3.263765 -26.679458 13.609987 -8.638356 -51.043420 64.238427 -74.046880 65.623625 -15.924010 -16.541205 -4.966545 3.623377 1.619705 24.908375 11.784304 6.019352 47.479716 60.924689 80.813555 -60.290289 -17.549559 13.992171 11.339023 
0.000000 0.000000 0.000000 -86.820104 -11.596117 174.906002 -11.231326 -4.843385 -2.205056 31.341462 -8.979008 -3.556502 -25.596865 10.717505 18.180715 -0.218903 0.414745 -1.593567 -19.096541 1.529174 -8.287957 72.992064 1.405160 4.447156 -1.811702 -5.534713 2.836637 -0.213036 0.657232 0.529291 11.346557 0.326694 -0.754440 10.793380 -0.355019 4.077924 -3.517074 0.907553 -1.813738 12.928869 2.049589 -3.571216 -4.327135 5.835719 -3.324802 6.578590 2.589535 -26.760821 12.446736 -11.199137 -50.411873 69.032396 -74.495239 71.056085 -16.059938 -17.031159 -4.045271 3.833200 2.075481 25.065880 13.101331 4.853314 47.413192 41.130186 78.795718 -39.431521 -16.291818 13.643415 11.543684 
0.000000 0.000000 0.000000 -87.383790 -15.157867 174.721815 -7.578606 -5.021892 -1.915560 27.322405 -10.743673 -1.991381 -24.211329 10.511549 16.380058 -0.213271 0.340961 -1.592276 -21.932672 2.276530 -7.428703 68.889114 0.218591 4.201708 -4.690458 -7.143534 1.540195 -0.111455 0.677973 0.506196 11.164252 -1.081685 0.071522 10.689883 -0.358989 3.941745 -3.591299 0.834258 -1.509350 13.248730 1.707967 -3.934613 -4.283482 5.461784 -2.907623 6.342937 2.160853 -26.069132 11.737523 -13.912874 -49.488175 83.740091 -74.360955 86.056860 -16.226398 -17.752732 -3.236249 4.096430 1.558524 24.853881 13.848294 3.656661 46.964437 29.406227 75.175537 -27.361063 -14.815123 13.367399 11.398401 
